<svg width="305" height="242" viewBox="0 0 305 242" fill="none" xmlns="http://www.w3.org/2000/svg">
<g clip-path="url(#clip0_2220_6279)">
<path d="M153.523 1.01142C153.588 2.26971 150.635 2.51794 149.815 2.6121C141.666 3.51087 133.911 3.56223 125.819 6.18152L115.723 11.266C123.55 10.0248 131.788 5.49674 139.534 4.52092C149.018 3.314 163.788 4.07582 173.022 6.36983C181.678 8.51833 189.682 13.3803 198.579 14.707L196.97 17.2578L207.412 21.9914C209.141 23.7033 207.854 23.4551 206.511 22.9501C203.124 21.6747 199.979 19.2865 196.158 19.8429L201.781 23.2668L199.367 24.1142C197.992 25.1756 203.872 28.0431 200.574 27.5467C194.879 26.6821 185.861 20.8701 179.305 19.3635C178.147 19.0982 173.996 18.0197 173.642 19.8258L192.136 25.8347L189.73 27.5296L194.549 30.0975C191.886 30.3115 190.157 28.1459 187.655 27.5895C186.899 27.4183 184.662 26.9475 184.896 28.3855C188.781 27.7949 190.301 31.6554 192.345 32.9479C197.034 35.9096 201.652 37.6301 206.696 41.5932C207.122 41.9271 209.616 42.492 208.216 43.7931C207.613 44.3495 199.778 38.1437 198.482 37.4674C194.219 35.2505 189.553 34.1291 184.936 33.042C184.115 32.8537 182.314 31.895 182.49 33.5043C184.003 33.9836 185.314 34.8653 186.826 35.396C193.736 37.8098 203.454 42.3208 209.632 46.9431C212.15 48.8262 214.458 52.5412 217.491 54.0477L217.869 52.3529C220.644 52.0447 220.717 55.4344 221.915 57.035C224.98 61.1523 229.002 64.4307 231.576 69.0101C237.071 78.7512 239.58 92.6265 244.407 101.417C244.914 102.333 246.137 101.743 246.587 102.205C251.824 107.572 251.727 126.147 250.762 133.987C247.239 162.688 232.679 190.653 211.442 208.56C212.021 209.793 213.421 208.432 214.104 207.969C219.607 204.306 226.155 199.709 230.78 194.899C231.842 193.794 234.794 190.576 235.591 189.506C238.953 184.995 240.731 178.207 244.825 174.749C244.898 176.735 243.297 179.799 242.428 181.614C241.053 184.516 234.255 196.439 234.947 198.288C235.18 198.913 236.564 198.365 236.411 199.932C236.355 200.497 234.062 205.624 233.692 206.129C230.708 210.135 217.885 219.859 213.469 222.701C194.275 235.061 167.552 242.362 145.077 241.883C135.488 241.678 109.521 235.403 101.067 230.961C93.9395 227.22 85.9354 222.838 78.7761 217.043C76.6524 215.322 63.7816 203.544 63.0657 202.106C62.5106 201.002 62.8565 199.35 62.4543 198.853C62.1888 198.528 60.9178 198.956 60.1778 198.143C57.9736 195.72 56.8877 190.524 55.4317 189.009C50.4684 183.805 51.2487 184.207 48.5458 177.317C44.6926 167.507 41.2497 158.836 39.2949 148.222C41.7002 147.768 40.5659 148.89 40.9923 150.225C44.7167 162.055 47.4357 173.636 54.1929 184.147C56.1235 186.869 54.9168 180.98 54.8203 180.749C53.855 178.464 51.8279 177.625 51.5704 177.103C51.0636 176.076 51.5222 174.441 50.9188 173.088C49.1572 169.134 46.7278 165.273 45.2879 161.079C45.0144 160.274 44.226 158.297 45.7142 158.485C50.6132 170.615 56.9762 182.658 65.8248 191.86L66.227 190.156L77.497 202.988C78.406 200.933 75.0275 198.904 73.8771 197.424C73.2416 196.61 73.1612 195.249 72.59 194.513C71.0134 192.476 67.1924 191.218 67.4498 187.58L69.847 189.292L53.7746 162.312C53.5976 159.812 54.7399 161.584 55.2547 162.457C58.0058 167.088 59.7836 172.549 63.1863 177.086C63.6931 177.753 63.7575 179.525 65.0365 177.736C63.4357 173.901 58.2472 167.336 57.3542 163.655C56.7831 161.31 57.3784 158.982 56.9359 157.253C56.1396 154.154 53.8148 150.816 53.7746 147.366L60.5559 155.977C64.6021 164.186 69.123 172.267 75.0918 179.029C75.317 175.956 71.3673 173.182 69.9757 170.777C66.9269 165.513 64.9802 157.997 63.484 151.997C63.4196 149.48 64.4251 151.389 64.8434 152.271C68.6162 160.146 73.2336 167.242 78.6956 173.901C76.5076 166.574 68.7127 158.186 66.6453 151.201C66.5166 150.764 66.4282 149.806 67.0315 149.934L77.0868 164.477C76.4191 162.217 75.9284 158.862 75.0033 156.859C74.0782 154.856 71.3673 152.459 71.0938 151.68C70.9249 151.184 71.0295 147.965 72.2522 148.222C72.2522 150.593 83.3774 167.037 84.3185 166.189L85.123 164.486C89.4669 173.268 98.8786 181.802 106.601 187.434C118.33 195.986 131.007 200.206 145.053 202.157L144.65 200.437C147.04 199.786 145.527 201.977 147.41 202.217C158.036 203.561 174.326 199.889 184.485 196.165C232.743 178.472 242.147 126.891 216.204 83.0139C215.52 81.8583 214.209 81.7471 213.831 81.0195L215.432 79.7441C211.627 79.1791 208.811 73.3842 206.044 70.4225C204.25 68.5051 201.378 66.913 200.148 65.5691C199.48 64.833 200.011 63.7031 199.367 63.0697C194.605 58.3789 183.496 56.4872 177.616 52.7723C177.648 49.6565 192.683 56.9751 193.905 57.7027C202.295 62.7016 214.861 74.8479 218.987 84.101C219.43 85.0939 218.867 86.395 219.51 87.7218C224.827 98.6355 232.622 108.882 233.137 121.678C234.593 121.233 234.07 116.431 233.885 115.31C233.105 110.568 230.024 105.124 229.903 99.8681C231.416 98.2845 232.59 101.803 233.925 101.991L231.528 91.7278C236.29 95.1517 234.593 102.761 238.752 106.271L237.964 99.4315C240.24 98.8752 239.934 101.554 240.546 103.087C240.948 104.088 242.058 105.8 241.97 103.301C238.671 94.7921 235.027 84.9399 230.249 77.2446C225.624 69.7977 217.193 64.5163 211.804 57.4887L210.613 57.9081C212.359 60.8613 220.532 67.0243 221.481 69.4553C221.754 70.1657 221.256 72.6309 219.88 72.0232C218.505 71.4154 217.571 68.197 215.448 68.6164C214.933 69.1214 220.282 72.708 218.263 74.5997C217.032 73.3328 215.898 71.9718 214.595 70.782C210.364 66.913 206.076 62.9327 201.491 58.6528L191.315 54.0562L192.924 51.5054C189.561 50.1188 184.477 49.5453 183.223 45.5564L180.077 47.217C179.828 42.064 167.086 44.3923 166.386 42.5006L167.987 41.2337C166.515 41.1139 164.487 40.9598 163.965 42.92L166.378 44.6405C161.495 45.6249 156.54 44.923 151.504 45.5136C147.57 45.9673 143.725 47.5765 140.242 48.0987C138.593 48.3469 138.094 47.9103 140.033 47.0201C143.87 45.2568 148.528 46.2155 151.094 42.9457C147.241 44.4608 142.736 44.0841 138.987 45.0343C131.675 46.8746 123.985 52.0704 118.08 56.3075C117.324 56.8467 117.396 59.7913 115.723 57.9253C118.024 51.6766 114.565 54.3558 111.967 56.9409C108.91 59.9796 106.81 64.8929 103.649 67.769C104.888 56.8382 112.2 52.7295 119.721 46.789C119.874 43.5021 115.305 48.8177 114.098 46.8061C117.71 44.7946 120.333 40.8999 124.548 40.3692C124.749 38.8541 122.746 39.5303 121.925 39.7187C117.388 40.7544 114.171 43.1426 110.02 45.0771L110.052 48.0387C105.129 49.1857 101.292 52.4128 97.9777 56.2219C97.2939 57.0094 97.4628 58.6357 96.6745 59.2948C96.0229 59.8341 94.2049 59.8426 94.0038 60.1166C93.851 60.322 94.5347 62.4705 93.5694 65.1839C92.2341 68.9246 88.5096 72.0403 88.7509 75.4728L90.7539 73.7694C90.5609 77.4843 85.0988 85.034 89.1612 87.0199C85.9998 95.5283 85.8791 100.955 78.2934 107.152C74.8344 109.986 69.1069 113.684 64.8113 112.947C59.8077 112.091 51.9405 105.415 49.9616 100.493C48.7228 97.4114 49.7927 95.5968 49.3824 93.414C48.2643 87.4308 46.4382 85.1196 47.3955 77.6983C47.9747 73.2044 58.6252 55.8538 61.8027 51.942C80.2803 29.1816 101.702 8.68953 130.058 2.98873C137.789 1.43085 145.632 0.651913 153.523 1.01142ZM222.704 186.741C223.87 187.845 229.855 179.773 230.724 178.592C237.972 168.783 245.622 144.858 246.088 132.387C246.153 130.615 246.072 127.405 244.817 125.975C244.061 129.083 244.64 132.233 244.061 135.434C243.538 138.37 241.76 140.065 241.358 141.974C240.86 144.37 241.559 146.913 241.004 149.301C238.422 160.497 233.258 170.546 227.369 180.159C225.962 182.444 224.087 184.439 222.696 186.733L222.704 186.741Z" fill="#FFFEEF"/>
<path d="M162.372 196.174L150.708 198.553C132.359 197.303 114.05 192.168 99.6593 179.439C98.4044 178.335 97.1254 176.615 97.2219 174.766C114.774 192.382 138.425 199.632 162.372 196.174Z" fill="#FFFEEF"/>
<path d="M263.07 136.53C262.684 136.769 263.44 138.319 262.129 137.951C262.837 133.337 261.879 128.843 261.743 124.289C261.711 123.228 262.595 122.654 262.547 121.644C262.483 120.275 260.906 118.349 261.324 116.568C262.491 117.202 263.722 120.42 264.132 121.696C265.347 125.445 267.036 132.866 264.928 136.316C264.47 137.06 263.448 136.29 263.062 136.53H263.07Z" fill="#FFFEEF"/>
<path d="M236.66 56.3415C237.473 57.3002 238.808 57.7453 239.959 59.2518C240.111 59.4487 243.281 64.5846 241.205 63.9255C240.071 62.71 239.589 60.6471 238.519 59.5001C234.682 55.3743 229.099 50.5209 225.511 46.3865C223.267 43.7929 223.532 41.2678 226.895 44.9142C230.257 48.5607 233.443 52.5153 236.669 56.3415H236.66Z" fill="#FFFEEF"/>
<path d="M233.967 42.081L232.358 42.509L234.385 45.4964L227.531 39.5302C230.194 38.2634 232.623 39.2649 233.967 42.081Z" fill="#FFFEEF"/>
</g>
<defs>
<clipPath id="clip0_2220_6279">
<rect width="304" height="241" fill="white" transform="translate(0.691406 0.925781)"/>
</clipPath>
</defs>
</svg>
