<svg width="32" height="32" viewBox="0 0 32 32" fill="none" xmlns="http://www.w3.org/2000/svg">
<path d="M8.9218 21.7209C8.5469 22.0958 8.5469 22.7035 8.9218 23.0784C9.2967 23.4533 9.90454 23.4533 10.2794 23.0784L8.9218 21.7209ZM16.6794 16.6784C17.0543 16.3035 17.0543 15.6958 16.6794 15.3209C16.3045 14.9459 15.6967 14.9459 15.3218 15.3209L16.6794 16.6784ZM15.3218 15.3209C14.9469 15.6958 14.9469 16.3035 15.3218 16.6784C15.6967 17.0533 16.3045 17.0533 16.6794 16.6784L15.3218 15.3209ZM23.0794 10.2785C23.4543 9.90357 23.4543 9.29572 23.0794 8.92082C22.7045 8.54592 22.0968 8.54592 21.7218 8.92082L23.0794 10.2785ZM16.6794 15.3209C16.3045 14.9459 15.6967 14.9459 15.3218 15.3209C14.9469 15.6958 14.9469 16.3035 15.3218 16.6784L16.6794 15.3209ZM21.7218 23.0784C22.0968 23.4533 22.7045 23.4533 23.0794 23.0784C23.4543 22.7035 23.4543 22.0958 23.0794 21.7209L21.7218 23.0784ZM15.3218 16.6784C15.6967 17.0533 16.3045 17.0533 16.6794 16.6784C17.0543 16.3035 17.0543 15.6958 16.6794 15.3209L15.3218 16.6784ZM10.2794 8.92082C9.90454 8.54592 9.2967 8.54592 8.9218 8.92082C8.5469 9.29572 8.5469 9.90357 8.9218 10.2785L10.2794 8.92082ZM10.2794 23.0784L16.6794 16.6784L15.3218 15.3209L8.9218 21.7209L10.2794 23.0784ZM16.6794 16.6784L23.0794 10.2785L21.7218 8.92082L15.3218 15.3209L16.6794 16.6784ZM15.3218 16.6784L21.7218 23.0784L23.0794 21.7209L16.6794 15.3209L15.3218 16.6784ZM16.6794 15.3209L10.2794 8.92082L8.9218 10.2785L15.3218 16.6784L16.6794 15.3209Z" fill="#D2A100"/>
</svg>
