<svg width="30" height="30" viewBox="0 0 30 30" fill="none" xmlns="http://www.w3.org/2000/svg">
<path d="M18.3875 10.2903H21.8042C22.6229 10.2903 23.3007 10.94 23.3007 11.7868V16.9268H15.1678V10.94C14.8849 10.8551 14.631 10.7421 14.462 10.5732C14.434 10.5732 14.434 10.5451 14.4051 10.5451C14.4051 10.5451 14.4051 10.5732 14.3771 10.5732C14.1792 10.743 13.9532 10.856 13.6993 10.94V16.9268H5.56641V11.7868C5.56641 10.9391 6.21613 10.2903 7.03485 10.2903H10.4805C10.0847 10.0924 9.7178 9.81048 9.40694 9.55564C8.05146 8.25619 7.79753 6.44887 8.87017 5.43226C9.322 5.03646 9.9148 4.81055 10.5645 4.81055C11.4962 4.81055 12.4568 5.17743 13.2755 5.94012C13.7273 6.36393 14.1511 6.95673 14.4051 7.52151C14.6879 6.95673 15.1108 6.36393 15.5626 5.94012C16.3533 5.17743 17.37 4.81055 18.2736 4.81055C18.9514 4.81055 19.5442 5.03646 19.968 5.43226C21.0415 6.44887 20.7867 8.25619 19.4032 9.55564C19.1203 9.80957 18.7544 10.0924 18.3875 10.2903ZM13.3604 9.4716C13.4734 9.21768 13.1906 7.91822 12.2589 7.04258C11.779 6.59075 11.1293 6.33682 10.5645 6.33682C10.3946 6.33682 10.1127 6.36484 9.9148 6.53472C9.85787 6.59165 9.68888 6.70461 9.68888 7.01456C9.68888 7.38145 9.9148 7.94623 10.4516 8.42698C11.1293 9.07671 12.2029 9.52853 12.9936 9.52853C13.2475 9.52853 13.3604 9.4716 13.3604 9.4716ZM15.5066 9.4716C15.5066 9.4716 15.6476 9.52853 15.8735 9.52853C16.6642 9.52853 17.7377 9.07671 18.4155 8.42698C18.9523 7.94714 19.1212 7.38235 19.1212 7.01456C19.1212 6.70371 18.9803 6.59075 18.9514 6.53472C18.7535 6.36484 18.4426 6.33682 18.2736 6.33682C17.7368 6.33682 17.0591 6.59075 16.5793 7.04258C15.6756 7.91822 15.3647 9.18876 15.5057 9.49962V9.4716H15.5066ZM13.6993 25.0597H7.03485C6.21613 25.0597 5.56641 24.4099 5.56641 23.5912V18.4232H13.6993V25.0597ZM21.8042 25.0597H15.1678V18.4232H23.3007V23.5912C23.3007 24.4099 22.6229 25.0597 21.8042 25.0597Z" fill="#D2A100"/>
</svg>
