<svg width="60" height="59" viewBox="0 0 60 59" fill="none" xmlns="http://www.w3.org/2000/svg">
<path d="M18.3293 36.3525C16.6382 36.2295 15.3608 34.7944 15.4613 33.1303V27.4914C15.25 25.9342 16.3627 24.5036 17.9467 24.2958C19.5307 24.0881 20.9861 25.182 21.1974 26.7391C21.2312 26.9888 21.2312 27.2417 21.1974 27.4913V33.1302C21.2979 34.7944 20.0205 36.2295 18.3293 36.3525Z" fill="#303335"/>
<path d="M24.1164 41.3711C22.4253 41.2481 21.1479 39.813 21.2484 38.1489V26.0656C21.0371 24.5084 22.1499 23.0778 23.7338 22.87C25.3178 22.6623 26.7732 23.7562 26.9845 25.3134C27.0183 25.563 27.0183 25.8159 26.9845 26.0655V38.1488C27.085 39.813 25.8076 41.2481 24.1164 41.3711Z" fill="#303335"/>
<path d="M45.1457 31.4983L35.2145 7.12424C33.5619 3.40458 27.6721 5.72056 29.0565 9.30955L31.6669 16.5956L33.7667 29.6187" fill="#303335"/>
<path d="M38.8469 16.5224L41.5483 8.73678C42.3308 4.75137 36.1429 3.3787 35.2148 7.10698" fill="#303335"/>
<path d="M28.3884 44.7399L36.5282 20.1542C37.3107 16.1688 33.9709 6.99849 27.0098 26.5645" fill="#303335"/>
<path d="M15.8789 38.3955V43.3676C16.8309 50.2955 22.9977 55.4387 30.2294 55.3358C38.2883 55.3358 45.146 49.8314 45.146 41.7396L45.1451 41.7388L44.5974 32.7738C44.4615 30.979 42.9282 29.5825 41.066 29.5572H32.7296C31.0074 29.4584 29.5222 30.7141 29.3949 32.3767C29.5467 34.0763 30.9493 35.4201 32.7096 35.5521L33.5841 35.6464C35.4072 35.8413 36.8987 36.7275 36.8987 37.6136V39.2247V39.5791C35.1036 39.9478 33.4417 40.7701 32.0827 41.962" fill="#303335"/>
<path d="M36.1739 45.1423L14.6465 38.7318V33.1261L37.1215 32.9834L36.1739 45.1423Z" fill="#303335"/>
<path d="M18.3313 36.3525C16.6401 36.2295 15.3628 34.7944 15.4632 33.1303V27.4914C15.252 25.9342 16.3647 24.5036 17.9487 24.2958C19.5327 24.0881 20.988 25.182 21.1993 26.7391C21.2332 26.9888 21.2332 27.2417 21.1993 27.4913V33.1302C21.2998 34.7944 20.0225 36.2295 18.3313 36.3525Z" stroke="#FFFEEF" stroke-linecap="round" stroke-linejoin="round"/>
<path d="M24.1184 41.3711C22.4272 41.2481 21.1499 39.813 21.2503 38.1489V26.0656C21.0391 24.5084 22.1518 23.0778 23.7358 22.87C25.3198 22.6623 26.7751 23.7562 26.9864 25.3134C27.0203 25.563 27.0203 25.8159 26.9864 26.0655V38.1488C27.0869 39.813 25.8096 41.2481 24.1184 41.3711Z" stroke="#FFFEEF" stroke-linecap="round" stroke-linejoin="round"/>
<path d="M31.667 16.5957L29.2324 22.8448" stroke="#FFFEEF" stroke-linecap="round" stroke-linejoin="round"/>
<path d="M42.8146 26.7849L35.2164 7.12424C33.5638 3.40458 27.6741 5.72056 29.0585 9.30955L31.6689 16.5956L35.3003 26.6916" stroke="#FFFEEF" stroke-linecap="round" stroke-linejoin="round"/>
<path d="M38.8469 16.5224L41.5483 8.73678C42.3308 4.75137 36.1429 3.3787 35.2148 7.10698" stroke="#FFFEEF" stroke-linecap="round" stroke-linejoin="round"/>
<path d="M15.4373 38.8632C15.4373 38.8632 15.3631 42.1807 15.4373 43.2833C15.9061 50.2568 23.3763 55.4387 30.4847 55.3358C38.4063 55.3358 45.147 49.8314 45.147 41.7396L45.1462 41.7388L44.6078 32.7738C44.4742 30.979 42.9671 29.5825 41.1367 29.5572H32.9422C31.2494 29.4584 29.7896 30.7141 29.6645 32.3767C29.8137 34.0763 31.1924 35.4201 32.9226 35.5521L33.7822 35.6464C35.5743 35.8413 37.0403 36.7275 37.0403 37.6136V39.2247V39.5791C35.2757 39.9478 33.6421 40.7701 32.3063 41.962" stroke="#FFFEEF" stroke-linecap="round" stroke-linejoin="round"/>
</svg>
