<svg width="22" height="22" viewBox="0 0 22 22" fill="none" xmlns="http://www.w3.org/2000/svg">
<path d="M8.36346 7.67363L10.7107 2.90814C10.9511 2.41994 11.6472 2.41994 11.8876 2.90814L14.2349 7.67363L19.4925 8.43336C20.0309 8.51118 20.2461 9.17282 19.8565 9.55251L16.0538 13.2577L16.9516 18.4933C17.0434 19.0294 16.4805 19.4381 15.9992 19.1846L12.0736 17.1168C12.1332 16.7867 12.1644 16.4467 12.1644 16.0994C12.1644 12.9595 9.619 10.4141 6.479 10.4141C5.64601 10.4141 4.85485 10.5932 4.14197 10.9151L2.74217 9.55277C2.35217 9.1732 2.56727 8.5112 3.10587 8.43336L8.36346 7.67363Z" fill="#FFFEEF"/>
<path d="M11.2894 16.0998C11.2894 18.7567 9.13556 20.9105 6.47868 20.9105C3.82179 20.9105 1.66797 18.7567 1.66797 16.0998C1.66797 13.4429 3.82179 11.2891 6.47868 11.2891C9.13556 11.2891 11.2894 13.4429 11.2894 16.0998ZM3.85465 15.6624C3.61312 15.6624 3.41732 15.8583 3.41732 16.0998C3.41732 16.3413 3.61312 16.5371 3.85465 16.5371H8.04687L6.60677 17.9772C6.43598 18.148 6.43598 18.4249 6.60677 18.5957C6.77756 18.7665 7.05447 18.7665 7.22526 18.5957L9.41194 16.4091C9.58272 16.2382 9.58272 15.9613 9.41194 15.7905L7.22526 13.6038C7.05447 13.4331 6.77756 13.4331 6.60677 13.6038C6.43598 13.7746 6.43599 14.0515 6.60677 14.2224L8.04687 15.6624H3.85465Z" fill="#FFFEEF"/>
</svg>
