<svg width="21" height="22" viewBox="0 0 21 22" fill="none" xmlns="http://www.w3.org/2000/svg">
<g clip-path="url(#clip0_2220_6260)">
<path d="M7.57831 7.37676L9.92552 2.61127C10.166 2.12307 10.862 2.12307 11.1025 2.61127L13.4498 7.37676L18.7073 8.13649C19.2458 8.2143 19.461 8.87595 19.0714 9.25564L15.2686 12.9608L16.1664 18.1964C16.2583 18.7326 15.6953 19.1412 15.2141 18.8877L11.2884 16.8199C11.3481 16.4898 11.3792 16.1498 11.3792 15.8026C11.3792 12.6626 8.83384 10.1172 5.69385 10.1172C4.86085 10.1172 4.0697 10.2963 3.35681 10.6182L1.95701 9.2559C1.56702 8.87632 1.78211 8.21433 2.32072 8.13649L7.57831 7.37676Z" fill="#FFFEEF"/>
<path d="M10.5042 15.8029C10.5042 18.4598 8.35041 20.6136 5.69352 20.6136C3.03664 20.6136 0.882812 18.4598 0.882812 15.8029C0.882812 13.146 3.03664 10.9922 5.69352 10.9922C8.35041 10.9922 10.5042 13.146 10.5042 15.8029ZM3.0695 15.3656C2.82797 15.3656 2.63216 15.5614 2.63216 15.8029C2.63216 16.0444 2.82797 16.2402 3.0695 16.2402H7.26172L5.82162 17.6803C5.65082 17.8511 5.65082 18.128 5.82162 18.2989C5.99241 18.4696 6.26931 18.4696 6.4401 18.2989L8.62679 16.1122C8.79757 15.9414 8.79757 15.6644 8.62679 15.4936L6.4401 13.3069C6.26931 13.1362 5.99241 13.1362 5.82162 13.3069C5.65082 13.4778 5.65083 13.7547 5.82162 13.9255L7.26172 15.3656H3.0695Z" fill="#FFFEEF"/>
</g>
<defs>
<clipPath id="clip0_2220_6260">
<rect width="20.9922" height="20.9922" fill="white" transform="translate(0.0078125 0.496094)"/>
</clipPath>
</defs>
</svg>
