<svg width="39" height="39" viewBox="0 0 39 39" fill="none" xmlns="http://www.w3.org/2000/svg">
<path d="M19.3486 2.91406C23.8141 2.91406 28.0966 4.68795 31.2541 7.84548C34.4117 11.003 36.1855 15.2855 36.1855 19.751C36.1855 24.2164 34.4117 28.4989 31.2541 31.6565C28.0966 34.814 23.8141 36.5879 19.3486 36.5879C14.8832 36.5879 10.6007 34.814 7.44314 31.6565C4.2856 28.4989 2.51172 24.2164 2.51172 19.751C2.51172 15.2855 4.2856 11.003 7.44314 7.84548C10.6007 4.68795 14.8832 2.91406 19.3486 2.91406ZM17.2512 23.0727L13.511 19.3301C13.3769 19.196 13.2178 19.0896 13.0426 19.017C12.8674 18.9445 12.6796 18.9071 12.49 18.9071C12.3004 18.9071 12.1126 18.9445 11.9374 19.017C11.7622 19.0896 11.603 19.196 11.469 19.3301C11.1982 19.6008 11.046 19.9681 11.046 20.3511C11.046 20.7341 11.1982 21.1013 11.469 21.3721L16.2314 26.1346C16.3651 26.2693 16.5242 26.3763 16.6994 26.4493C16.8746 26.5223 17.0626 26.5598 17.2524 26.5598C17.4423 26.5598 17.6302 26.5223 17.8055 26.4493C17.9807 26.3763 18.1398 26.2693 18.2735 26.1346L28.1351 16.2705C28.271 16.137 28.3791 15.9779 28.4531 15.8024C28.5272 15.6269 28.5658 15.4384 28.5667 15.2479C28.5676 15.0574 28.5307 14.8686 28.4583 14.6924C28.3859 14.5162 28.2793 14.3561 28.1446 14.2214C28.01 14.0866 27.85 13.9798 27.6739 13.9071C27.4978 13.8345 27.309 13.7974 27.1185 13.7981C26.928 13.7987 26.7396 13.8371 26.564 13.911C26.3884 13.9848 26.2291 14.0928 26.0954 14.2285L17.2512 23.0727Z" fill="url(#paint0_linear_2220_6337)"/>
<defs>
<linearGradient id="paint0_linear_2220_6337" x1="19.3486" y1="2.91406" x2="19.3486" y2="36.5879" gradientUnits="userSpaceOnUse">
<stop stop-color="#8EFFC7"/>
<stop offset="1" stop-color="#DDFFEE"/>
</linearGradient>
</defs>
</svg>
